<?xml version="1.0" encoding="UTF-8" standalone="no"?>
<svg
   xmlns:dc="http://purl.org/dc/elements/1.1/"
   xmlns:cc="http://creativecommons.org/ns#"
   xmlns:rdf="http://www.w3.org/1999/02/22-rdf-syntax-ns#"
   xmlns:svg="http://www.w3.org/2000/svg"
   xmlns="http://www.w3.org/2000/svg"
   xmlns:sodipodi="http://sodipodi.sourceforge.net/DTD/sodipodi-0.dtd"
   xmlns:inkscape="http://www.inkscape.org/namespaces/inkscape"
   width="700pt"
   height="700pt"
   version="1.1"
   viewBox="0 0 700 700"
   id="svg835"
   sodipodi:docname="lock.svg"
   inkscape:version="0.92.5 (2060ec1f9f, 2020-04-08)">
  <metadata
     id="metadata841">
    <rdf:RDF>
      <cc:Work
         rdf:about="">
        <dc:format>image/svg+xml</dc:format>
        <dc:type
           rdf:resource="http://purl.org/dc/dcmitype/StillImage" />
        <dc:title></dc:title>
      </cc:Work>
    </rdf:RDF>
  </metadata>
  <defs
     id="defs839" />
  <sodipodi:namedview
     pagecolor="#ffffff"
     bordercolor="#666666"
     borderopacity="1"
     objecttolerance="10"
     gridtolerance="10"
     guidetolerance="10"
     inkscape:pageopacity="0"
     inkscape:pageshadow="2"
     inkscape:window-width="1920"
     inkscape:window-height="1001"
     id="namedview837"
     showgrid="false"
     inkscape:zoom="0.82392857"
     inkscape:cx="466.66667"
     inkscape:cy="216.27735"
     inkscape:window-x="-9"
     inkscape:window-y="-9"
     inkscape:window-maximized="1"
     inkscape:current-layer="g833" />
  <g
     fill-rule="evenodd"
     id="g833">
    <path
       id="path829"
       d="M192.50001 373.33501C192.50001 344.33901 216.00401 320.83501 245.00001 320.83501C245.00001 320.83501 455.00001 320.83501 455.00001 320.83501C483.99201 320.83501 507.50001 344.33901 507.50001 373.33501C507.50001 373.33501 507.50001 513.33501 507.50001 513.33501C507.50001 542.32701 483.99201 565.83501 455.00001 565.83501C455.00001 565.83501 245.00001 565.83501 245.00001 565.83501C216.00401 565.83501 192.50001 542.32701 192.50001 513.33501C192.50001 513.33501 192.50001 373.33501 192.50001 373.33501M245.00001 355.83501C235.33591 355.83501 227.50001 363.67091 227.50001 373.33501C227.50001 373.33501 227.50001 513.33501 227.50001 513.33501C227.50001 522.99911 235.33591 530.83501 245.00001 530.83501C245.00001 530.83501 455.00001 530.83501 455.00001 530.83501C464.66411 530.83501 472.50001 522.99911 472.50001 513.33501C472.50001 513.33501 472.50001 373.33501 472.50001 373.33501C472.50001 363.67091 464.66411 355.83501 455.00001 355.83501C455.00001 355.83501 245.00001 355.83501 245.00001 355.83501" />
    <path
       id="ani_point"
       d="m 239.17001,244.99501 c 0,-61.211 49.621,-110.83 110.83,-110.83 61.209,0 110.83,49.621 110.83,110.83 0,0 0,44.18125 0,44.18125 0,9.6641 -7.8359,17.5 -17.5,17.5 -9.6641,0 -17.5,-7.8359 -17.5,-17.5 0,0 0,-44.18125 0,-44.18125 0,-41.879 -33.949,-75.832 -75.832,-75.832 -41.883,0 -75.832,33.953 -75.832,75.832 0,0 0,93.336 0,93.336 0,9.6641 -7.8359,17.5 -17.5,17.5 -9.668,0 -17.5,-7.8359 -17.5,-17.5 0,0 0.004,-93.336 0.004,-93.336"
       inkscape:connector-curvature="0" />
    <path
       id="path843"
       d="M350.00043 391.67026C342.544595662 391.670106169 335.394088735 394.631856694 330.122017715 399.903927715C324.849946694 405.175998735 321.888196169 412.326505662 321.88835 419.78234C321.900095001 429.778490616 327.21923858 439.016490338 335.85853 444.04499C335.85853 444.04499 335.85853 480.8587 335.85853 480.8587C335.85853 488.69296 342.16616 494.99976 350.00043 494.99976C357.8347 494.99976 364.1415 488.69296 364.1415 480.8587C364.1415 480.8587 364.1415 444.03745 364.1415 444.03745C372.778468584 439.010307046 378.097255691 429.775797087 378.11168 419.78234C378.111833827 412.32664947 375.150197236 405.17626833 369.878305731 399.904221169C364.606414226 394.632174009 357.456120531 391.670326303 350.00043 391.67026C350.00043 391.67026 350.00043 391.67026 350.00043 391.67026"
       style="opacity:1;stroke-linejoin:round;vector-effect:none;stroke-opacity:1;fill-opacity:1;paint-order:normal;stroke-dashoffset:0;stroke:#ffffff;stroke-linecap:round;stroke-miterlimit:4;stroke-dasharray:none;stroke-width:15.00000033;fill:#ffffff" />
  </g>
</svg>
