<?xml version="1.0" encoding="UTF-8" standalone="no"?>
<svg
   xmlns:dc="http://purl.org/dc/elements/1.1/"
   xmlns:cc="http://creativecommons.org/ns#"
   xmlns:rdf="http://www.w3.org/1999/02/22-rdf-syntax-ns#"
   xmlns:svg="http://www.w3.org/2000/svg"
   xmlns="http://www.w3.org/2000/svg"
   xmlns:sodipodi="http://sodipodi.sourceforge.net/DTD/sodipodi-0.dtd"
   xmlns:inkscape="http://www.inkscape.org/namespaces/inkscape"
   width="700pt"
   height="700pt"
   version="1.1"
   viewBox="0 0 700 700"
   id="svg817"
   sodipodi:docname="login.svg"
   inkscape:version="0.92.5 (2060ec1f9f, 2020-04-08)">
  <metadata
     id="metadata823">
    <rdf:RDF>
      <cc:Work
         rdf:about="">
        <dc:format>image/svg+xml</dc:format>
        <dc:type
           rdf:resource="http://purl.org/dc/dcmitype/StillImage" />
        <dc:title></dc:title>
      </cc:Work>
    </rdf:RDF>
  </metadata>
  <defs
     id="defs821" />
  <sodipodi:namedview
     pagecolor="#ffffff"
     bordercolor="#666666"
     borderopacity="1"
     objecttolerance="10"
     gridtolerance="10"
     guidetolerance="10"
     inkscape:pageopacity="0"
     inkscape:pageshadow="2"
     inkscape:window-width="2560"
     inkscape:window-height="1017"
     id="namedview819"
     showgrid="false"
     inkscape:zoom="0.86464286"
     inkscape:cx="466.66667"
     inkscape:cy="420.40479"
     inkscape:window-x="1912"
     inkscape:window-y="-8"
     inkscape:window-maximized="1"
     inkscape:current-layer="svg817" />
  <path
     style="stroke-width:1.286495445"
     id="path833"
     d="M337.78723 69.508881C229.52777 69.508881 130.81584 132.11147 84.399079 229.91943C84.399079 229.91943 84.392179 229.91943 84.392179 229.91943C81.216079 236.66684 80.834247 244.40588 83.333496 251.43478C85.839418 258.46367 91.01902 264.21928 97.74619 267.44221C104.50029 270.625 112.23264 271.00014 119.26154 268.50089C126.29044 266.00166 132.04605 260.81537 135.26897 254.0882C172.39037 175.87957 251.20794 126.06818 337.78051 126.06818C461.83298 126.06818 561.7508 225.99285 561.7508 350.03846C561.7508 474.08407 461.82612 574.23174 337.78051 574.23174C251.20966 574.23174 172.38523 524.36717 135.26897 446.15854C132.04605 439.4312 126.29026 434.24508 119.26154 431.74585C112.23264 429.24661 104.50029 429.62176 97.74619 432.80453C91.005469 436.02746 85.812659 441.78993 83.306565 448.83889C80.807333 455.88117 81.195855 463.6269 84.392042 470.38169C130.81223 568.18965 229.51731 630.51607 337.78019 630.51607C492.3672 630.51607 618.32196 504.61962 618.32196 350.02575C618.32196 195.43188 492.37234 69.483974 337.78019 69.483974C337.78019 69.483974 337.78719 69.508844 337.78719 69.508844" />
  <path
     style="stroke-width:1.286495445"
     id="path815"
     d="M367.63735 230.74965C367.63735 230.74965 367.63735 230.74265 367.63735 230.74265C360.14617 230.84986 352.99669 233.92544 347.77043 239.29922C342.544 244.68638 339.67614 251.93638 339.80359 259.44059C339.92418 266.94515 343.03321 274.09463 348.43375 279.30751C348.43375 279.30751 392.63087 321.90938 392.63087 321.90938C392.63087 321.90938 198.45582 321.90238 198.45582 321.90238C190.95795 321.87558 183.76164 324.82376 178.44138 330.1037C173.12781 335.37696 170.1193 342.55321 170.09254 350.04438C170.05904 357.5757 173.04085 364.80563 178.36762 370.13258C183.68788 375.45953 190.92433 378.44128 198.45582 378.40766C198.45582 378.40766 392.75094 378.40766 392.75094 378.40766C392.75094 378.40766 348.44061 420.9495 348.44061 420.9495C348.44061 420.9495 348.44061 420.9565 348.44061 420.9565C343.04007 426.16284 339.93104 433.31217 339.81045 440.81654C339.68318 448.32779 342.55103 455.57111 347.77729 460.95793C352.98365 466.31164 360.09952 469.38722 367.56359 469.50781C375.02801 469.63508 382.2377 466.79416 387.61748 461.62125C387.61748 461.62125 482.52997 370.46018 482.52997 370.46018C488.05127 365.13323 491.16699 357.79626 491.16699 350.13012C491.16699 342.45797 488.05127 335.121 482.52997 329.79491C482.52997 329.79491 387.61748 238.46746 387.61748 238.46746C382.23033 233.37499 375.06077 230.60114 367.6425 230.7418C367.6425 230.7418 367.6375 230.7508 367.6375 230.7508" />
</svg>
